<?xml version="1.0" encoding="utf-8"?>
<!-- Generator: Adobe Illustrator 27.5.0, SVG Export Plug-In . SVG Version: 6.00 Build 0)  -->
<svg version="1.1" xmlns="http://www.w3.org/2000/svg" xmlns:xlink="http://www.w3.org/1999/xlink" x="0px" y="0px"
	 viewBox="0 0 500 500" style="enable-background:new 0 0 500 500;" xml:space="preserve">
<g id="BACKGROUND">
	<rect style="fill-rule:evenodd;clip-rule:evenodd;fill:#F1EBF7;" width="500" height="500"/>
</g>
<g id="OBJECTS">
	<g>
		<g>
			<path style="fill:#FFFFFF;" d="M423.84,402.056c5.917-10.645,11.795-21.543,16.515-33.303
				c8.279-20.626,14.958-43.759,16.651-70.566c0.248-3.901,0.213-7.848,0.684-11.874c0.251,27.203-3.859,50.897-9.827,72.066
				c-5.229,18.546-12.566,35.484-21.293,50.365c-1.224,2.086-2.647,4.092-3.686,6.278c20.804-27.624,37.077-60.965,43.131-103.597
				c2.021-14.223,2.705-30.24,1.502-46.406c-1.662-22.334-6.632-42.611-13.24-60.056c-2.236-5.907-4.865-11.473-7.644-16.925
				c-10.614-20.833-23.301-39.912-38.489-56.37c-0.748-0.81-1.036-1.256-1.638-1.229c-0.441,0.021-1.742,0.781-2.729,1.229
				c-2.968,1.343-5.879,2.643-8.463,3.821c-26.246,11.985-52.304,24.239-77.391,36.852c-7.298,3.67-14.701,7.015-21.838,10.782
				c-7.157,3.78-14.362,7.494-21.564,11.056c-3.594,1.777-7.082,3.804-10.647,5.597c-10.913,5.487-21.415,11.456-32.483,16.651
				c52.023-29.644,104.556-58.903,156.554-88.445c3.476-1.974,6.939-4.056,10.51-5.869c-1.15-1.623-2.762-2.792-4.231-4.095
				c-1.479-1.311-2.845-2.854-4.641-3.821c-15.645,7.561-31.679,14.455-47.498,21.701c-15.821,7.247-31.24,15.181-46.68,22.658
				c-0.257,0.102,0.609-0.421,0.818-0.547c6.971-4.158,13.893-8.551,20.884-12.83c6.988-4.277,13.93-8.632,20.882-12.967
				c12.199-7.604,24.544-14.995,36.58-22.521c1.68-1.05,3.614-1.974,4.914-3.549c-20.499-14.896-44.673-27.197-74.934-32.484
				c-7.707-1.347-15.742-2.273-24.022-2.866c-26.45-1.895-52.01,1.303-73.022,6.552c-28.404,7.096-52.785,18.866-73.704,33.713
				c-10.603,7.525-20.096,15.728-29.074,24.705c-8.403,8.404-15.652,18.144-22.247,28.117c-0.423,0.64-0.969,1.529-1.91,1.501
				c-0.11-1.039,0.754-1.833,1.229-2.593c8.075-12.917,17.449-24.683,27.844-35.079c11.184-11.185,23.824-20.917,37.263-29.754
				c26.973-17.739,58.957-30.935,97.727-36.443c-25.857,0.373-48.296,5.32-68.383,12.147c-19.934,6.776-37.636,16.069-53.503,27.025
				c-31.534,21.771-56.726,51.439-73.705,87.49c-8.503,18.053-15.171,38.662-18.563,61.967c-2.541,17.467-2.906,38.379-0.818,56.506
				c3.462,30.067,12.207,54.765,23.748,76.982c7.053,13.576,15.335,26.011,24.65,37.27h1.887c-2.509-3.602-4.979-7.259-7.291-11.064
				c-12.205-20.08-21.343-43.139-26.889-69.747c-0.502-2.405-1.074-4.861-1.229-7.37c6.186,26.586,15.935,50.378,28.255,71.385
				c3.394,5.787,6.971,11.39,10.75,16.796H411.98C416.233,414.906,420.188,408.625,423.84,402.056z"/>
			<g>
				<path style="fill-rule:evenodd;clip-rule:evenodd;fill:#F1EBF7;" d="M292.295,421.063c7.93-0.395,15.895-0.838,23.824-0.898
					V245.069h-15.006v-23.887h-23.824v199.717h15.006V421.063z"/>
				<polygon style="fill-rule:evenodd;clip-rule:evenodd;fill:#F1EBF7;" points="358.622,391.701 358.622,305.064 343.827,299.983 
					343.827,420.899 355.969,420.899 358.622,420.899 377.579,420.899 377.579,391.701 				"/>
				<polygon style="fill-rule:evenodd;clip-rule:evenodd;fill:#F1EBF7;" points="205.063,126.34 194.826,126.34 194.826,226.813 
					185.631,226.813 185.631,402.427 195.867,402.427 195.867,301.954 205.063,301.954 				"/>
				<polygon style="fill-rule:evenodd;clip-rule:evenodd;fill:#F1EBF7;" points="118.958,205.642 118.958,285.21 102.41,285.21 
					102.41,261.854 78.24,270.157 78.24,367.186 78.24,421.063 102.41,421.063 102.41,420.899 136.197,420.899 136.197,362.063 
					136.197,285.21 136.197,205.642 				"/>
				<polygon style="fill-rule:evenodd;clip-rule:evenodd;fill:#D9D6ED;" points="270.518,194.774 270.518,87.668 204.836,100.844 
					204.836,246.527 199.945,246.527 199.945,420.899 204.836,420.899 230.653,420.899 243.166,420.899 270.518,420.899 
					277.289,420.899 277.289,194.774 				"/>
				<polygon style="fill-rule:evenodd;clip-rule:evenodd;fill:#D9D6ED;" points="178.902,150.984 178.902,143.73 145.025,143.73 
					145.025,150.984 136.197,150.984 136.197,420.899 187.73,420.899 187.73,150.984 				"/>
				<rect x="292.295" y="256.765" style="fill-rule:evenodd;clip-rule:evenodd;fill:#D9D6ED;" width="51.532" height="164.135"/>
				<g>
					<path style="fill-rule:evenodd;clip-rule:evenodd;fill:#B4AFD8;" d="M301.113,411.367V272.309h-2.41V411.39
						C299.507,411.383,300.309,411.375,301.113,411.367z"/>
					<path style="fill-rule:evenodd;clip-rule:evenodd;fill:#B4AFD8;" d="M310.087,411.279V272.309h-2.409v138.993
						C308.481,411.295,309.284,411.287,310.087,411.279z"/>
					<path style="fill-rule:evenodd;clip-rule:evenodd;fill:#B4AFD8;" d="M319.063,411.206V272.309h-2.409v138.914
						C317.456,411.216,318.26,411.211,319.063,411.206z"/>
					<path style="fill-rule:evenodd;clip-rule:evenodd;fill:#B4AFD8;" d="M328.038,411.185V272.309h-2.41v138.876
						C326.432,411.184,327.234,411.184,328.038,411.185z"/>
					<path style="fill-rule:evenodd;clip-rule:evenodd;fill:#B4AFD8;" d="M337.013,411.252V272.309h-2.409v138.916
						C335.404,411.232,336.209,411.24,337.013,411.252z"/>
				</g>
				<g>
					<rect x="213.114" y="106.246" style="fill-rule:evenodd;clip-rule:evenodd;fill:#B4AFD8;" width="3.019" height="238.099"/>
					<rect x="224.361" y="106.246" style="fill-rule:evenodd;clip-rule:evenodd;fill:#B4AFD8;" width="3.02" height="238.099"/>
					<rect x="235.61" y="106.246" style="fill-rule:evenodd;clip-rule:evenodd;fill:#B4AFD8;" width="3.02" height="238.099"/>
					<rect x="246.859" y="106.246" style="fill-rule:evenodd;clip-rule:evenodd;fill:#B4AFD8;" width="3.02" height="238.099"/>
					<rect x="258.108" y="106.246" style="fill-rule:evenodd;clip-rule:evenodd;fill:#B4AFD8;" width="3.02" height="238.099"/>
				</g>
				<polygon style="fill-rule:evenodd;clip-rule:evenodd;fill:#D9D6ED;" points="106.865,303.225 106.865,307.837 90.943,307.837 
					90.943,420.899 127.339,420.899 127.339,420.093 127.339,307.837 127.339,303.225 				"/>
				<rect x="235.61" y="322.734" style="fill-rule:evenodd;clip-rule:evenodd;fill:#B4AFD8;" width="47.555" height="98.165"/>
				<rect x="283.165" y="371.816" style="fill-rule:evenodd;clip-rule:evenodd;fill:#B4AFD8;" width="48.721" height="49.083"/>
				<g>
					<g>
						<g>
							<rect x="141.94" y="158.36" style="fill-rule:evenodd;clip-rule:evenodd;fill:#B4AFD8;" width="40.046" height="2.408"/>
							<rect x="141.94" y="167.334" style="fill-rule:evenodd;clip-rule:evenodd;fill:#B4AFD8;" width="40.046" height="2.409"/>
							<rect x="141.94" y="176.309" style="fill-rule:evenodd;clip-rule:evenodd;fill:#B4AFD8;" width="40.046" height="2.409"/>
							<rect x="141.94" y="185.284" style="fill-rule:evenodd;clip-rule:evenodd;fill:#B4AFD8;" width="40.046" height="2.409"/>
							<rect x="141.94" y="194.259" style="fill-rule:evenodd;clip-rule:evenodd;fill:#B4AFD8;" width="40.046" height="2.408"/>
							<rect x="141.94" y="203.233" style="fill-rule:evenodd;clip-rule:evenodd;fill:#B4AFD8;" width="40.046" height="2.408"/>
							<rect x="141.94" y="212.208" style="fill-rule:evenodd;clip-rule:evenodd;fill:#B4AFD8;" width="40.046" height="2.409"/>
							<rect x="141.94" y="221.183" style="fill-rule:evenodd;clip-rule:evenodd;fill:#B4AFD8;" width="40.046" height="2.409"/>
							<rect x="141.94" y="230.157" style="fill-rule:evenodd;clip-rule:evenodd;fill:#B4AFD8;" width="40.046" height="2.409"/>
						</g>
						<g>
							<rect x="141.94" y="230.157" style="fill-rule:evenodd;clip-rule:evenodd;fill:#B4AFD8;" width="40.046" height="2.409"/>
							<rect x="141.94" y="239.132" style="fill-rule:evenodd;clip-rule:evenodd;fill:#B4AFD8;" width="40.046" height="2.409"/>
							<rect x="141.94" y="248.106" style="fill-rule:evenodd;clip-rule:evenodd;fill:#B4AFD8;" width="40.046" height="2.409"/>
							<rect x="141.94" y="257.081" style="fill-rule:evenodd;clip-rule:evenodd;fill:#B4AFD8;" width="40.046" height="2.409"/>
							<rect x="141.94" y="266.056" style="fill-rule:evenodd;clip-rule:evenodd;fill:#B4AFD8;" width="40.046" height="2.41"/>
							<rect x="141.94" y="275.03" style="fill-rule:evenodd;clip-rule:evenodd;fill:#B4AFD8;" width="40.046" height="2.409"/>
							<rect x="141.94" y="284.005" style="fill-rule:evenodd;clip-rule:evenodd;fill:#B4AFD8;" width="40.046" height="2.409"/>
							<rect x="141.94" y="292.979" style="fill-rule:evenodd;clip-rule:evenodd;fill:#B4AFD8;" width="40.046" height="2.409"/>
							<rect x="141.94" y="301.954" style="fill-rule:evenodd;clip-rule:evenodd;fill:#B4AFD8;" width="40.046" height="2.409"/>
						</g>
						<g>
							<rect x="141.94" y="301.954" style="fill-rule:evenodd;clip-rule:evenodd;fill:#B4AFD8;" width="40.046" height="2.409"/>
							<rect x="141.94" y="310.929" style="fill-rule:evenodd;clip-rule:evenodd;fill:#B4AFD8;" width="40.046" height="2.41"/>
							<rect x="141.94" y="319.904" style="fill-rule:evenodd;clip-rule:evenodd;fill:#B4AFD8;" width="40.046" height="2.408"/>
							<rect x="141.94" y="328.878" style="fill-rule:evenodd;clip-rule:evenodd;fill:#B4AFD8;" width="40.046" height="2.41"/>
							<rect x="141.94" y="337.853" style="fill-rule:evenodd;clip-rule:evenodd;fill:#B4AFD8;" width="40.046" height="2.409"/>
							<rect x="141.94" y="346.828" style="fill-rule:evenodd;clip-rule:evenodd;fill:#B4AFD8;" width="40.046" height="2.409"/>
							<rect x="141.94" y="355.803" style="fill-rule:evenodd;clip-rule:evenodd;fill:#B4AFD8;" width="40.046" height="2.409"/>
							<rect x="141.94" y="364.777" style="fill-rule:evenodd;clip-rule:evenodd;fill:#B4AFD8;" width="40.046" height="2.409"/>
							<rect x="141.94" y="373.751" style="fill-rule:evenodd;clip-rule:evenodd;fill:#B4AFD8;" width="40.046" height="2.409"/>
						</g>
					</g>
					<g>
						<rect x="141.94" y="373.751" style="fill-rule:evenodd;clip-rule:evenodd;fill:#B4AFD8;" width="40.046" height="2.409"/>
						<rect x="141.94" y="382.727" style="fill-rule:evenodd;clip-rule:evenodd;fill:#B4AFD8;" width="40.046" height="2.409"/>
						<rect x="141.94" y="391.701" style="fill-rule:evenodd;clip-rule:evenodd;fill:#B4AFD8;" width="40.046" height="2.409"/>
						<rect x="141.94" y="400.676" style="fill-rule:evenodd;clip-rule:evenodd;fill:#B4AFD8;" width="40.046" height="2.409"/>
						<rect x="141.94" y="409.65" style="fill-rule:evenodd;clip-rule:evenodd;fill:#B4AFD8;" width="40.046" height="2.409"/>
					</g>
				</g>
				<polygon style="fill-rule:evenodd;clip-rule:evenodd;fill:#B4AFD8;" points="242.023,420.899 179.71,420.899 179.71,275.152 
					242.023,290.994 				"/>
				<g>
					<path style="fill-rule:evenodd;clip-rule:evenodd;fill:#D9D6ED;" d="M190.749,409.421V296.989h-3.019v112.48
						C188.733,409.432,189.741,409.419,190.749,409.421z"/>
					<path style="fill-rule:evenodd;clip-rule:evenodd;fill:#D9D6ED;" d="M201.999,409.899v-112.91h-3.02v112.728
						C199.985,409.774,200.991,409.837,201.999,409.899z"/>
					<path style="fill-rule:evenodd;clip-rule:evenodd;fill:#D9D6ED;" d="M212.456,410.315h0.79V296.989h-3.018v113.299
						C210.969,410.305,211.713,410.315,212.456,410.315z"/>
					<rect x="221.475" y="296.989" style="fill-rule:evenodd;clip-rule:evenodd;fill:#D9D6ED;" width="3.022" height="113.326"/>
					<rect x="232.725" y="296.989" style="fill-rule:evenodd;clip-rule:evenodd;fill:#D9D6ED;" width="3.019" height="113.326"/>
				</g>
				<g>
					<rect x="116.533" y="345.261" style="fill-rule:evenodd;clip-rule:evenodd;fill:#B4AFD8;" width="52.997" height="75.639"/>
					<rect x="62.886" y="363.211" style="fill-rule:evenodd;clip-rule:evenodd;fill:#B4AFD8;" width="73.312" height="57.688"/>
					<g>
						<rect x="70.279" y="372.431" style="fill:#F1EBF7;" width="92.509" height="2.409"/>
						<rect x="70.279" y="381.405" style="fill:#F1EBF7;" width="92.509" height="2.41"/>
						<rect x="70.279" y="390.38" style="fill:#F1EBF7;" width="92.509" height="2.409"/>
						<rect x="70.279" y="399.354" style="fill:#F1EBF7;" width="92.509" height="2.409"/>
						<rect x="70.279" y="408.329" style="fill:#F1EBF7;" width="92.509" height="2.41"/>
						<rect x="124.115" y="354.598" style="fill:#F1EBF7;" width="38.673" height="2.409"/>
						<rect x="124.115" y="363.572" style="fill:#F1EBF7;" width="38.673" height="2.408"/>
					</g>
				</g>
			</g>
		</g>
		<g>
			<g>
				<g>
					<polygon style="fill:#1F005A;" points="96.357,224.422 130.179,156.779 163.998,224.422 					"/>
					<path style="fill:#F29657;" d="M155.546,156.572c-8.08,0-15.246,3.915-19.708,9.949l0,0c-0.096,0.132-0.188,0.265-0.282,0.397
						c-0.195,0.276-0.388,0.558-0.569,0.843c-0.094,0.143-0.188,0.285-0.277,0.43c-0.098,0.156-0.191,0.314-0.283,0.474
						c-0.092,0.153-0.181,0.308-0.268,0.464c-0.086,0.154-0.172,0.309-0.256,0.468c-0.093,0.173-0.18,0.35-0.27,0.524
						c-0.07,0.143-0.144,0.285-0.213,0.43c-0.148,0.308-0.289,0.619-0.423,0.934c-0.045,0.107-0.086,0.218-0.131,0.325
						c-0.094,0.232-0.186,0.461-0.274,0.695c-0.05,0.137-0.098,0.273-0.147,0.411c-0.073,0.214-0.147,0.43-0.218,0.646
						c-0.045,0.137-0.086,0.273-0.128,0.413c-0.073,0.234-0.14,0.472-0.201,0.71c-0.035,0.118-0.067,0.237-0.097,0.357
						c-0.092,0.354-0.174,0.711-0.249,1.073c-0.01,0.046-0.017,0.094-0.025,0.141c-0.064,0.319-0.121,0.642-0.175,0.965
						c-0.018,0.123-0.033,0.246-0.053,0.369c-0.035,0.255-0.069,0.512-0.096,0.768c-0.015,0.134-0.029,0.268-0.041,0.4
						c-0.026,0.265-0.045,0.53-0.062,0.795c-0.007,0.12-0.016,0.24-0.021,0.359c-0.018,0.384-0.03,0.769-0.03,1.156
						c0,0.421,0.012,0.841,0.032,1.257c0.008,0.144,0.023,0.284,0.033,0.427c0.018,0.272,0.035,0.545,0.062,0.815
						c0.017,0.16,0.042,0.319,0.062,0.48c0.029,0.247,0.056,0.496,0.094,0.741c0.026,0.172,0.061,0.34,0.091,0.509
						c0.04,0.232,0.077,0.466,0.124,0.695c0.037,0.179,0.082,0.354,0.122,0.529c0.049,0.218,0.094,0.438,0.149,0.653
						c0.048,0.188,0.105,0.371,0.159,0.558c0.057,0.201,0.108,0.402,0.169,0.602c0.061,0.194,0.13,0.384,0.195,0.575
						c0.061,0.187,0.122,0.375,0.188,0.559c0.073,0.206,0.158,0.406,0.239,0.609c0.065,0.166,0.128,0.335,0.196,0.499
						c0.09,0.216,0.191,0.427,0.288,0.639c0.065,0.148,0.13,0.297,0.2,0.442c0.108,0.228,0.225,0.449,0.342,0.672
						c0.065,0.127,0.127,0.255,0.194,0.38c0.128,0.234,0.263,0.465,0.398,0.695c0.062,0.107,0.122,0.219,0.188,0.326
						c0.146,0.243,0.302,0.48,0.456,0.718c0.061,0.09,0.114,0.183,0.175,0.271c0.167,0.25,0.343,0.492,0.519,0.735
						c0.054,0.073,0.104,0.149,0.158,0.221c0.189,0.255,0.387,0.504,0.586,0.751c0.045,0.056,0.088,0.114,0.135,0.171
						c0.214,0.26,0.436,0.516,0.661,0.768c0.033,0.038,0.066,0.078,0.099,0.116c0.24,0.264,0.484,0.521,0.733,0.773
						c0.024,0.025,0.048,0.05,0.071,0.074c0.264,0.266,0.535,0.524,0.812,0.778c0.01,0.009,0.02,0.02,0.029,0.028
						c0.286,0.263,0.578,0.518,0.877,0.766c0.001,0.001,0.001,0.002,0.002,0.003c3.898,3.244,8.818,5.298,14.207,5.613
						c0.005,0.001,0.008,0.001,0.012,0.001c0.396,0.023,0.794,0.036,1.192,0.04c0.02,0,0.039,0.002,0.059,0.002v-0.001
						c0.063,0.001,0.125,0.005,0.189,0.005c13.527,0,24.497-10.969,24.497-24.496C180.043,167.54,169.073,156.572,155.546,156.572z"
						/>
				</g>
				<g>
					<path style="fill:#69659B;" d="M155.495,188.739l-1.317-3.148c-2.872,1.203-5.695,2.606-8.393,4.172l1.713,2.951
						C150.067,191.223,152.761,189.885,155.495,188.739z"/>
					<path style="fill:#69659B;" d="M131.784,205.173l-2.482-2.34c-2.141,2.27-4.153,4.698-5.985,7.22l2.761,2.005
						C127.822,209.653,129.743,207.338,131.784,205.173z"/>
					<path style="fill:#69659B;" d="M116.763,229.826l-3.22-1.128c-1.032,2.945-1.883,5.987-2.524,9.04l3.34,0.703
						C114.969,235.531,115.779,232.634,116.763,229.826z"/>
					<path style="fill:#69659B;" d="M113.1,258.459l-3.401,0.274c0.252,3.115,0.708,6.237,1.354,9.279l3.338-0.709
						C113.774,264.403,113.341,261.428,113.1,258.459z"/>
					<path style="fill:#69659B;" d="M169.386,184.576l-0.63-3.354c-3.065,0.576-6.122,1.359-9.085,2.326l1.059,3.244
						C163.552,185.872,166.466,185.126,169.386,184.576z"/>
					<path style="fill:#69659B;" d="M122.977,216.71l-2.913-1.776c-1.627,2.665-3.092,5.461-4.357,8.309l3.118,1.387
						C120.032,221.914,121.429,219.25,122.977,216.71z"/>
					<path style="fill:#69659B;" d="M112.873,252.795c0-2.957,0.186-5.932,0.557-8.844l-3.383-0.431
						c-0.39,3.055-0.586,6.176-0.586,9.274v0.08h3.412V252.795z"/>
					<path style="fill:#69659B;" d="M246.162,217.78c-1.501-2.73-3.194-5.391-5.032-7.907l-2.756,2.014
						c1.752,2.398,3.366,4.935,4.796,7.537L246.162,217.78z"/>
					<path style="fill:#69659B;" d="M248.78,232.799l3.269-0.981c-0.896-2.986-1.998-5.943-3.274-8.789l-3.114,1.395
						C246.877,227.135,247.927,229.953,248.78,232.799z"/>
					<path style="fill:#69659B;" d="M251.47,247.053l3.4-0.278c-0.256-3.114-0.714-6.235-1.363-9.277l-3.337,0.714
						C250.788,241.11,251.226,244.085,251.47,247.053z"/>
					<path style="fill:#69659B;" d="M213.396,186.927c-2.82-1.334-5.756-2.496-8.727-3.454l-1.046,3.247
						c2.828,0.913,5.625,2.021,8.314,3.293L213.396,186.927z"/>
					<path style="fill:#69659B;" d="M199.021,181.9c-3.029-0.713-6.141-1.235-9.248-1.553l-0.346,3.395
						c2.96,0.303,5.926,0.801,8.812,1.479L199.021,181.9z"/>
					<path style="fill:#69659B;" d="M226.403,194.846c-2.482-1.894-5.111-3.642-7.809-5.196l-1.703,2.956
						c2.571,1.483,5.076,3.149,7.443,4.953L226.403,194.846z"/>
					<path style="fill:#69659B;" d="M183.849,183.397l0.075-3.412c-3.11-0.067-6.274,0.063-9.366,0.388l0.357,3.394
						C177.862,183.456,180.877,183.334,183.849,183.397z"/>
					<path style="fill:#69659B;" d="M142.783,195.711l-1.945-2.804c-2.561,1.775-5.032,3.735-7.346,5.824l2.287,2.533
						C137.984,199.272,140.34,197.404,142.783,195.711z"/>
					<path style="fill:#69659B;" d="M232.739,300.473l2.479,2.345c2.144-2.269,4.16-4.696,5.993-7.214l-2.76-2.008
						C236.706,295.997,234.783,298.31,232.739,300.473z"/>
					<path style="fill:#69659B;" d="M237.482,205.282c-2.033-2.36-4.24-4.614-6.561-6.697l-2.28,2.539
						c2.215,1.986,4.318,4.135,6.258,6.386L237.482,205.282z"/>
					<path style="fill:#69659B;" d="M221.729,309.924l1.941,2.807c2.563-1.773,5.036-3.73,7.354-5.817l-2.285-2.534
						C226.53,306.368,224.172,308.234,221.729,309.924z"/>
					<path style="fill:#69659B;" d="M212.196,315.444c0.188,0.693,0.282,1.399,0.268,2.156c-0.011,0.509-0.036,1.006-0.011,1.499
						c2.138-0.975,4.238-2.057,6.266-3.232l-1.707-2.953C215.445,313.821,213.832,314.661,212.196,315.444z"/>
					<path style="fill:#69659B;" d="M251.703,252.635v0.16c0,2.983-0.19,5.985-0.566,8.921l3.383,0.435
						c0.397-3.08,0.597-6.228,0.597-9.355v-0.16H251.703z"/>
					<path style="fill:#69659B;" d="M247.787,275.837l3.22,1.133c1.036-2.944,1.889-5.985,2.534-9.038l-3.34-0.706
						C249.587,270.134,248.775,273.031,247.787,275.837z"/>
					<path style="fill:#69659B;" d="M241.558,288.946l2.91,1.779c1.63-2.664,3.098-5.458,4.368-8.304l-3.116-1.39
						C244.511,283.745,243.11,286.407,241.558,288.946z"/>
					<path style="fill:#69659B;" d="M118.376,287.737c1.496,2.73,3.185,5.393,5.024,7.913l2.759-2.009
						c-1.754-2.403-3.364-4.941-4.79-7.544L118.376,287.737z"/>
					<path style="fill:#69659B;" d="M129.627,298.022l-2.586,2.225c2.031,2.364,4.236,4.62,6.553,6.704l2.284-2.536
						C133.668,302.427,131.565,300.276,129.627,298.022z"/>
					<path style="fill:#69659B;" d="M115.774,272.717l-3.269,0.979c0.893,2.988,1.99,5.946,3.264,8.792l3.114-1.393
						C117.672,278.383,116.627,275.564,115.774,272.717z"/>
					<path style="fill:#69659B;" d="M138.109,310.696c2.479,1.894,5.104,3.646,7.803,5.204l1.707-2.954
						c-2.573-1.486-5.076-3.155-7.439-4.962L138.109,310.696z"/>
					<path style="fill:#69659B;" d="M165.477,323.671c3.027,0.717,6.138,1.242,9.245,1.563l0.35-3.395
						c-2.96-0.307-5.925-0.807-8.811-1.489L165.477,323.671z"/>
					<path style="fill:#69659B;" d="M180.651,322.191l-0.08,3.411c0.571,0.014,1.143,0.02,1.717,0.02
						c2.554,0,5.127-0.133,7.65-0.397l-0.354-3.394C186.637,322.139,183.619,322.261,180.651,322.191z"/>
					<path style="fill:#69659B;" d="M195.113,321.027l0.625,3.354c3.067-0.572,6.125-1.352,9.09-2.316l-1.055-3.244
						C200.948,319.739,198.035,320.482,195.113,321.027z"/>
					<path style="fill:#69659B;" d="M151.106,318.628c2.821,1.339,5.757,2.504,8.722,3.465l1.051-3.246
						c-2.825-0.916-5.621-2.026-8.311-3.301L151.106,318.628z"/>
				</g>
				<path style="fill:#FFFFFF;" d="M275.803,380.61l-0.063-3.412c2.994-0.056,6.011-0.339,8.961-0.841l0.572,3.364
					C282.155,380.252,278.969,380.551,275.803,380.61z M269.857,380.444c-2.561-0.191-5.146-0.542-7.684-1.042
					c-0.576-0.113-1.149-0.234-1.721-0.363l0.75-3.328c0.539,0.121,1.082,0.235,1.63,0.343c2.405,0.475,4.852,0.807,7.279,0.987
					L269.857,380.444z M291.083,378.451l-0.884-3.296c2.889-0.774,5.747-1.773,8.497-2.971l1.362,3.128
					C297.154,376.577,294.134,377.633,291.083,378.451z M254.72,377.468c-3.014-0.977-5.976-2.188-8.804-3.599l1.524-3.054
					c2.676,1.336,5.479,2.482,8.331,3.407L254.72,377.468z M305.393,372.688l-1.646-2.989c2.625-1.445,5.164-3.099,7.547-4.913
					l2.068,2.713C310.846,369.417,308.164,371.162,305.393,372.688z M240.724,370.966c-2.686-1.671-5.27-3.561-7.681-5.616
					l2.215-2.597c2.281,1.945,4.727,3.734,7.268,5.315L240.724,370.966z M317.92,363.68l-2.309-2.511
					c2.208-2.029,4.279-4.241,6.158-6.57l2.656,2.142C322.44,359.201,320.251,361.537,317.92,363.68z M228.701,361.283
					c-2.204-2.265-4.261-4.718-6.108-7.287l2.769-1.993c1.752,2.434,3.695,4.756,5.786,6.901L228.701,361.283z M327.939,351.938
					l-2.845-1.884c1.654-2.497,3.133-5.142,4.398-7.858l3.093,1.439C331.25,346.507,329.685,349.301,327.939,351.938z
					 M219.345,349.015c-1.605-2.729-3.019-5.601-4.2-8.531l3.164-1.275c1.119,2.775,2.459,5.492,3.978,8.077L219.345,349.015z
					 M334.838,338.131l-3.213-1.145c1-2.81,1.802-5.731,2.383-8.683l0.022-0.116l3.346,0.679l-0.017,0.08
					C336.742,332.079,335.895,335.163,334.838,338.131z M213.179,334.872c-0.904-3.033-1.591-6.157-2.034-9.286l3.379-0.479
					c0.42,2.961,1.068,5.918,1.925,8.788L213.179,334.872z M338.249,322.972l-3.395-0.344c0.204-2.023,0.308-4.077,0.308-6.105
					c0-0.964-0.022-1.938-0.068-2.896l3.407-0.164c0.049,1.011,0.073,2.041,0.073,3.06
					C338.574,318.666,338.465,320.835,338.249,322.972z M210.584,319.665c-0.046-1.001-0.068-2.013-0.068-3.006
					c0-2.156,0.109-4.344,0.331-6.503l3.395,0.347c-0.21,2.043-0.314,4.115-0.314,6.156c-0.001,0.941,0.022,1.897,0.068,2.844
					L210.584,319.665z M334.56,308.024c-0.423-2.961-1.074-5.918-1.934-8.787l3.269-0.98c0.908,3.032,1.596,6.155,2.043,9.285
					L334.56,308.024z M215.081,304.88l-3.36-0.591l0.021-0.108c0.604-3.057,1.442-6.123,2.49-9.075l3.216,1.142
					C216.455,299.042,215.659,301.946,215.081,304.88z M330.762,293.926c-1.121-2.775-2.463-5.491-3.984-8.074l2.94-1.731
					c1.607,2.728,3.023,5.596,4.209,8.527L330.762,293.926z M219.576,291.035l-3.096-1.436c1.332-2.871,2.893-5.666,4.64-8.308
					l2.848,1.881C222.313,285.673,220.837,288.318,219.576,291.035z M323.697,281.137c-1.751-2.432-3.7-4.752-5.791-6.895
					l2.442-2.382c2.209,2.264,4.266,4.714,6.118,7.282L323.697,281.137z M227.288,278.626l-2.658-2.139
					c1.98-2.463,4.167-4.801,6.498-6.946l2.311,2.509C231.232,274.083,229.163,276.295,227.288,278.626z M313.792,270.396
					c-2.282-1.942-4.729-3.73-7.272-5.309l1.801-2.899c2.687,1.669,5.272,3.557,7.684,5.609L313.792,270.396z M237.755,268.431
					l-2.071-2.712c2.516-1.921,5.196-3.669,7.964-5.197l1.648,2.988C242.673,264.957,240.135,266.613,237.755,268.431z
					 M301.602,262.344c-2.677-1.333-5.479-2.477-8.334-3.4l1.049-3.246c3.017,0.976,5.979,2.184,8.807,3.592L301.602,262.344z
					 M250.347,261.021l-1.366-3.127c2.902-1.267,5.921-2.325,8.974-3.146l0.886,3.295
					C255.95,258.819,253.092,259.821,250.347,261.021z M287.836,257.461c-0.523-0.117-1.049-0.229-1.578-0.333
					c-2.422-0.477-4.889-0.81-7.331-0.989l0.249-3.403c2.58,0.19,5.185,0.542,7.742,1.046c0.557,0.109,1.112,0.227,1.664,0.351
					L287.836,257.461z M264.337,256.835l-0.576-3.363c3.118-0.534,6.304-0.835,9.469-0.897l0.067,3.412
					C270.302,256.044,267.285,256.33,264.337,256.835z"/>
				<g>
					<g>
						<rect x="223.317" y="236.188" style="fill:#FFFFFF;" width="39.434" height="43.055"/>
						<path style="fill:#F29657;" d="M262.751,280.414h-39.434c-0.648,0-1.171-0.525-1.171-1.171v-43.056
							c0-0.645,0.523-1.17,1.171-1.17h39.434c0.646,0,1.171,0.525,1.171,1.17v43.056
							C263.922,279.889,263.396,280.414,262.751,280.414 M224.486,278.074h37.098v-40.718h-37.098V278.074z"/>
						<rect x="223.317" y="236.188" style="fill:#F29657;" width="39.434" height="7.034"/>
						<path style="fill:#F29657;" d="M262.751,244.391h-39.434c-0.648,0-1.171-0.522-1.171-1.169v-7.034
							c0-0.645,0.523-1.17,1.171-1.17h39.434c0.646,0,1.171,0.525,1.171,1.17v7.034
							C263.922,243.868,263.396,244.391,262.751,244.391 M224.486,242.053h37.098v-4.696h-37.098V242.053z"/>
						<path style="fill:#1F005A;" d="M230.935,248.204c-0.06,0.198-0.098,0.431-0.115,0.69c-0.021,0.262-0.027,0.596-0.027,1.002
							l0.014,0.554c0,0.334-0.01,0.627-0.023,0.878c-0.019,0.249-0.045,0.437-0.08,0.567c-0.152,0.577-0.464,0.864-0.929,0.864
							v0.773c0.361,0,0.633,0.205,0.811,0.606c0.155,0.337,0.234,0.694,0.234,1.072v2.207c0,0.431,0.115,0.814,0.354,1.154
							c0.236,0.339,0.559,0.509,0.962,0.509h0.866v-0.839h-0.568c-0.405,0-0.607-0.464-0.607-1.392l0.014-1.122
							c0-1.481-0.38-2.346-1.137-2.595c0.326-0.104,0.596-0.339,0.808-0.71c0.21-0.369,0.315-0.735,0.315-1.097l0.014-0.735v-1.458
							c0-0.705,0.198-1.06,0.594-1.06h0.568v-0.84h-0.866C231.531,247.235,231.131,247.559,230.935,248.204"/>
						<path style="fill:#1F005A;" d="M232.069,266.229c-0.034-0.129-0.06-0.317-0.077-0.566c-0.016-0.25-0.024-0.543-0.024-0.877
							l0.012-0.556c0-0.406-0.01-0.74-0.026-1.001c-0.016-0.263-0.055-0.494-0.116-0.69c-0.196-0.646-0.597-0.969-1.199-0.969
							h-0.863v0.839h0.565c0.396,0,0.596,0.353,0.596,1.059v1.457l0.013,0.738c0,0.359,0.104,0.727,0.314,1.095
							c0.214,0.371,0.481,0.609,0.807,0.71c-0.756,0.249-1.134,1.114-1.134,2.597l0.013,1.122c0,0.927-0.204,1.391-0.608,1.391
							h-0.565v0.841h0.863c0.405,0,0.725-0.171,0.962-0.511c0.236-0.338,0.354-0.724,0.354-1.154v-2.206
							c0-0.379,0.081-0.736,0.236-1.073c0.178-0.401,0.449-0.604,0.812-0.604v-0.775
							C232.535,267.094,232.225,266.805,232.069,266.229"/>
						<polygon style="fill:#1F005A;" points="238.365,251.883 240.148,251.883 240.148,257.435 241.245,257.435 241.245,250.927 
							238.365,250.927 						"/>
						<path style="fill:#1F005A;" d="M240.669,248.588c-0.478,0-0.848,0.372-0.848,0.85c0,0.473,0.37,0.846,0.848,0.846
							c0.476,0,0.851-0.373,0.851-0.846C241.519,248.96,241.144,248.588,240.669,248.588"/>
						<rect x="245.373" y="252.635" style="fill:#1F005A;" width="3.272" height="0.953"/>
						<rect x="251.846" y="252.635" style="fill:#1F005A;" width="3.27" height="0.953"/>
					</g>
					<g>
						<rect x="268.792" y="360.978" style="fill:#FFFFFF;" width="30.911" height="43.936"/>
						<path style="fill:#F29657;" d="M299.703,406.084h-30.911c-0.645,0-1.168-0.525-1.168-1.17v-43.936
							c0-0.645,0.523-1.171,1.168-1.171h30.911c0.643,0,1.168,0.526,1.168,1.171v43.936
							C300.871,405.56,300.347,406.084,299.703,406.084 M269.962,403.745h28.572v-41.598h-28.572V403.745z"/>
						<rect x="268.792" y="360.978" style="fill:#F29657;" width="30.911" height="7.179"/>
						<path style="fill:#F29657;" d="M299.703,369.326h-30.911c-0.645,0-1.168-0.524-1.168-1.168v-7.181
							c0-0.645,0.523-1.171,1.168-1.171h30.911c0.643,0,1.168,0.526,1.168,1.171v7.181
							C300.871,368.802,300.347,369.326,299.703,369.326 M269.962,366.988h28.572v-4.841h-28.572V366.988z"/>
						<path style="fill:#1F005A;" d="M277.163,381.98c-0.006,0.498-0.301,1.002-0.944,1.002c-0.849,0-1.26-0.874-1.26-2.675
							c0-1.875,0.433-2.787,1.327-2.787c0.45,0,0.784,0.343,0.794,0.817l0.001,0.189h1.103l-0.011-0.206
							c-0.064-1.05-0.845-1.782-1.897-1.782c-1.102,0-2.414,0.65-2.414,3.751c0,3.038,1.266,3.674,2.33,3.674
							c1.208,0,1.98-0.735,2.065-1.967l0.014-0.209h-1.106L277.163,381.98z"/>
						<polygon style="fill:#1F005A;" points="281.749,377.517 280.703,377.517 280.703,379.746 278.444,379.746 278.444,380.757 
							280.703,380.757 280.703,382.986 281.749,382.986 281.749,380.757 284.005,380.757 284.005,379.746 281.749,379.746 						"/>
						<polygon style="fill:#1F005A;" points="287.715,379.746 287.715,377.518 286.666,377.518 286.666,379.746 284.406,379.746 
							284.406,380.759 286.666,380.759 286.666,382.986 287.715,382.986 287.715,380.759 289.973,380.759 289.973,379.746 						"/>
						<path style="fill:#1F005A;" d="M276.06,390.301c-0.528,0-0.957,0.411-0.957,0.918c0,0.515,0.429,0.93,0.957,0.93
							c0.522,0,0.945-0.415,0.945-0.93C277.006,390.712,276.582,390.301,276.06,390.301"/>
						<path style="fill:#1F005A;" d="M281.235,390.301c-0.527,0-0.958,0.411-0.958,0.918c0,0.515,0.431,0.93,0.958,0.93
							c0.521,0,0.947-0.415,0.947-0.93C282.183,390.712,281.756,390.301,281.235,390.301"/>
						<path style="fill:#1F005A;" d="M286.411,390.301c-0.528,0-0.959,0.411-0.959,0.918c0,0.515,0.431,0.93,0.959,0.93
							c0.52,0,0.946-0.415,0.946-0.93C287.357,390.712,286.931,390.301,286.411,390.301"/>
					</g>
				</g>
				<path style="fill:#FFFFFF;" d="M169.845,251.318l6.599,2.889c0.257-0.287,0.516-0.576,0.769-0.879
					c0.581-0.712,1.118-1.448,1.606-2.2l-4.455-5.653c0.184-0.393,0.345-0.79,0.496-1.191l7.156-0.8
					c0.283-1.27,0.46-2.56,0.528-3.852l-6.696-2.669c-0.038-0.429-0.095-0.852-0.163-1.276l5.804-4.271
					c-0.391-1.233-0.878-2.439-1.475-3.6l-7.129,1.032c-0.249-0.348-0.508-0.692-0.782-1.023l2.89-6.601
					c-0.287-0.258-0.58-0.514-0.881-0.763c-0.709-0.593-1.444-1.125-2.198-1.613l-5.655,4.457c-0.389-0.184-0.788-0.348-1.188-0.495
					l-0.798-7.158c-1.274-0.282-2.562-0.458-3.855-0.527l-2.672,6.694c-0.426,0.042-0.854,0.097-1.277,0.167l-4.268-5.803
					c-1.233,0.388-2.438,0.877-3.598,1.468l1.032,7.136c-0.349,0.246-0.688,0.505-1.025,0.78l-6.6-2.891
					c-0.263,0.283-0.518,0.577-0.765,0.88c-0.587,0.709-1.121,1.445-1.611,2.2l4.454,5.652c-0.181,0.393-0.345,0.791-0.492,1.192
					l-7.161,0.796c-0.278,1.272-0.461,2.559-0.521,3.854l6.691,2.669c0.041,0.43,0.096,0.853,0.167,1.276l-5.804,4.271
					c0.389,1.232,0.877,2.437,1.467,3.6l7.137-1.032c0.244,0.348,0.506,0.689,0.778,1.025l-2.888,6.597
					c0.283,0.261,0.577,0.516,0.879,0.768c0.709,0.587,1.445,1.118,2.199,1.609l5.652-4.454c0.393,0.181,0.788,0.344,1.192,0.494
					l0.796,7.161c1.275,0.278,2.561,0.454,3.854,0.522l2.674-6.697c0.425-0.037,0.85-0.094,1.275-0.166l4.268,5.806
					c1.23-0.387,2.438-0.879,3.602-1.47l-1.036-7.134C169.167,251.851,169.509,251.591,169.845,251.318 M150.506,248.976
					c-5.82-4.816-6.634-13.435-1.813-19.258c4.811-5.816,13.438-6.629,19.252-1.815c5.824,4.818,6.634,13.441,1.82,19.26
					C164.946,252.98,156.324,253.795,150.506,248.976"/>
				<g>
					<g>
						<path style="fill:#F29657;" d="M193.835,332.666c-0.803,0.081-1.521,0.067-2.216,0.054c-1.318-0.028-2.565-0.054-3.771,0.699
							c-1.172,0.729-1.567,2.468-1.617,3.378c-0.024,0.474,0.006,0.9,0.029,1.273c0.053,0.738,0.066,1.14-0.18,1.511
							c-0.331,0.504-1.172,0.958-2.138,0.855c-0.146-0.016-0.293-0.045-0.432-0.083c-1.021-0.293-2.505-1.896-3.481-2.956
							c-0.15-0.162-0.292-0.316-0.423-0.456c-0.284-0.302-0.565-0.63-0.863-0.979c-1.09-1.272-2.216-2.591-3.723-2.907
							c-0.247-0.052-0.503-0.091-0.778-0.122c-0.78-0.08-1.587-0.071-2.526-0.059c-0.635,0.008-1.295,0.02-2.027-0.002h-0.029
							l-55.429,0.121c-0.226,0.003-0.45-0.007-0.67-0.029c-2.931-0.313-5.156-2.771-5.18-5.724l-0.19-21.311
							c-0.029-3.194,2.552-5.82,5.748-5.848l79.208-0.316c0.225-0.002,0.452,0.009,0.673,0.033c2.929,0.313,5.153,2.771,5.177,5.72
							l0.196,21.31c0.023,2.938-2.157,5.431-5.068,5.8L193.835,332.666z"/>
						<g>
							<g>
								<path style="fill:#FFFFFF;" d="M121.557,328.208h-0.002c-2.603,0-4.72-2.117-4.721-4.718l-0.01-13.061
									c0-1.26,0.488-2.446,1.382-3.339c0.892-0.893,2.075-1.385,3.337-1.386l22.655-0.014c2.602,0,4.722,2.117,4.722,4.719
									l0.011,13.06c0,1.261-0.491,2.447-1.382,3.339c-0.892,0.893-2.075,1.384-3.338,1.385L121.557,328.208z M144.202,308.189
									l-22.657,0.014c-0.596,0-1.152,0.231-1.573,0.652c-0.418,0.421-0.649,0.979-0.649,1.572l0.009,13.061
									c0.001,1.224,0.999,2.221,2.224,2.221v1.248l0.001-1.248l22.654-0.016c0.594,0,1.15-0.23,1.571-0.651
									c0.42-0.419,0.648-0.979,0.648-1.57l-0.006-13.061C146.421,309.185,145.425,308.189,144.202,308.189z"/>
								<path style="fill:#FFFFFF;" d="M133.154,319.424c-0.278,0-0.555-0.094-0.782-0.278l-13.323-10.768
									c-0.536-0.434-0.62-1.22-0.187-1.757c0.435-0.536,1.221-0.619,1.757-0.186l12.55,10.143l12.525-9.783
									c0.543-0.424,1.328-0.328,1.753,0.216c0.424,0.543,0.327,1.329-0.216,1.754l-13.306,10.394
									C133.697,319.335,133.427,319.424,133.154,319.424z"/>
							</g>
							<g>
								<path style="fill:#FFFFFF;" d="M153.572,314.021c-0.689,0-1.249-0.559-1.249-1.248c0-0.689,0.559-1.249,1.247-1.249
									l35.735-0.023l0,0c0.69,0,1.25,0.558,1.25,1.248c0,0.689-0.56,1.25-1.25,1.251l-35.731,0.021
									C153.574,314.021,153.573,314.021,153.572,314.021z"/>
								<path style="fill:#FFFFFF;" d="M153.578,321.405c-0.69,0-1.251-0.559-1.251-1.248c0-0.689,0.56-1.249,1.249-1.249
									l18.534-0.013h0.001c0.689,0,1.25,0.559,1.25,1.248c0,0.691-0.559,1.251-1.25,1.251L153.578,321.405L153.578,321.405z"/>
							</g>
						</g>
					</g>
					<g>
						<path style="fill:#1F005A;" d="M210.905,350.794H190.24c-0.55-0.034-1.638-0.25-2.284-1.385
							c-0.68-1.191-1.151-2.483-3.177-2.483h-9.922c-1.37,0-2.48,1.11-2.48,2.483v3.868v7.039v15.872c0,1.371,1.11,2.483,2.48,2.483
							h36.048c1.37,0,2.481-1.111,2.481-2.483v-22.911C213.387,351.905,212.275,350.794,210.905,350.794z"/>
						<polygon style="fill:#1F005A;" points="169.121,360.473 162.436,350.442 168.498,346.402 160.472,342.433 152.442,338.463 
							153.02,347.399 153.595,356.335 159.811,352.192 166.498,362.221 						"/>
					</g>
				</g>
				<g>
					<path style="fill:#B4AFD8;" d="M356.005,207.825l9.104-1.896c0.062-0.493,0.112-0.988,0.151-1.496
						c0.08-1.184,0.097-2.355,0.048-3.516l-8.912-2.614c-0.104-0.553-0.232-1.092-0.372-1.63l6.935-6.187
						c-0.655-1.549-1.43-3.038-2.326-4.444l-9.039,2.195c-0.362-0.423-0.736-0.826-1.129-1.22l2.912-8.832
						c-1.329-1.008-2.744-1.911-4.235-2.686l-6.73,6.415c-0.523-0.182-1.054-0.348-1.591-0.492l-1.892-9.106
						c-0.497-0.057-0.996-0.107-1.501-0.146c-1.184-0.089-2.355-0.097-3.514-0.051l-2.621,8.915
						c-0.548,0.101-1.091,0.227-1.621,0.37l-6.19-6.938c-1.549,0.657-3.036,1.438-4.446,2.329l2.195,9.041
						c-0.423,0.358-0.826,0.738-1.22,1.127l-8.831-2.913c-1.009,1.331-1.907,2.745-2.687,4.235l6.42,6.733
						c-0.186,0.521-0.35,1.051-0.496,1.589l-9.103,1.892c-0.061,0.495-0.111,0.996-0.147,1.496c-0.087,1.188-0.099,2.358-0.051,3.52
						l8.917,2.617c0.1,0.547,0.225,1.089,0.369,1.623l-6.939,6.19c0.658,1.548,1.434,3.038,2.33,4.444l9.037-2.193
						c0.361,0.42,0.739,0.824,1.129,1.218l-2.91,8.832c1.327,1.004,2.742,1.906,4.232,2.69l6.732-6.424
						c0.522,0.187,1.05,0.349,1.591,0.496l1.892,9.1c0.495,0.062,0.993,0.115,1.5,0.151c1.183,0.09,2.357,0.097,3.518,0.049
						l2.619-8.911c0.548-0.104,1.085-0.229,1.622-0.37l6.188,6.936c1.551-0.658,3.035-1.435,4.447-2.332l-2.198-9.04
						c0.423-0.357,0.827-0.737,1.218-1.127l8.834,2.916c1.008-1.328,1.906-2.746,2.689-4.236l-6.422-6.733
						C355.693,208.892,355.861,208.362,356.005,207.825 M333.911,219.817c-9.724-0.716-17.023-9.176-16.302-18.904
						c0.716-9.716,9.181-17.02,18.898-16.301c9.729,0.715,17.026,9.179,16.312,18.898
						C352.098,213.239,343.635,220.538,333.911,219.817"/>
					<path style="fill:#1F005A;" d="M303.188,240.704l-3.092-5.225c0.197-0.306,0.386-0.619,0.554-0.936l6.067,0.135
						c0.376-1.033,0.667-2.089,0.861-3.163l-5.291-2.977c0.016-0.36,0.021-0.724,0.01-1.085l5.324-2.92
						c-0.186-1.072-0.463-2.132-0.825-3.17l-6.072,0.066c-0.162-0.32-0.346-0.637-0.54-0.945l3.152-5.184
						c-0.353-0.418-0.715-0.823-1.102-1.218c-0.388-0.394-0.793-0.762-1.206-1.117l-5.222,3.095
						c-0.31-0.199-0.618-0.383-0.936-0.555l0.138-6.07c-1.035-0.377-2.095-0.662-3.164-0.861l-2.982,5.291
						c-0.361-0.016-0.722-0.018-1.083-0.004l-2.916-5.328c-1.074,0.188-2.136,0.463-3.174,0.826l0.066,6.071
						c-0.322,0.167-0.634,0.348-0.944,0.544l-5.187-3.153c-0.413,0.349-0.822,0.713-1.214,1.1c-0.395,0.39-0.762,0.794-1.116,1.207
						l3.092,5.222c-0.198,0.307-0.384,0.618-0.553,0.936l-6.069-0.137c-0.378,1.036-0.664,2.093-0.862,3.163l5.294,2.979
						c-0.02,0.361-0.02,0.725-0.009,1.086l-5.325,2.918c0.184,1.074,0.46,2.135,0.826,3.17l6.069-0.063
						c0.166,0.318,0.349,0.634,0.541,0.942l-3.15,5.186c0.351,0.416,0.713,0.825,1.101,1.218c0.388,0.393,0.795,0.76,1.206,1.114
						l5.222-3.091c0.309,0.197,0.618,0.384,0.938,0.554l-0.136,6.07c1.034,0.376,2.089,0.663,3.16,0.861l2.982-5.291
						c0.359,0.014,0.72,0.017,1.082,0.007l2.92,5.323c1.074-0.185,2.132-0.459,3.172-0.824l-0.065-6.069
						c0.315-0.168,0.631-0.351,0.943-0.543l5.186,3.149c0.413-0.347,0.823-0.71,1.215-1.1
						C302.464,241.52,302.835,241.115,303.188,240.704 M293.588,233.329c-2.986,2.953-7.805,2.926-10.762-0.064
						c-2.954-2.989-2.928-7.81,0.065-10.765c2.989-2.955,7.807-2.926,10.762,0.063C296.609,225.554,296.581,230.371,293.588,233.329
						"/>
				</g>
			</g>
			<g>
				<defs>
					<rect id="SVGID_1_" x="244.857" y="207.111" width="235.343" height="213.788"/>
				</defs>
				<clipPath id="SVGID_00000116940468946005979410000012328188110836377241_">
					<use xlink:href="#SVGID_1_"  style="overflow:visible;"/>
				</clipPath>
				<g style="clip-path:url(#SVGID_00000116940468946005979410000012328188110836377241_);">
					<g>
						<g>
							<path style="fill-rule:evenodd;clip-rule:evenodd;fill:#F9D5CA;" d="M324.809,324.939
								c-2.371-3.689-8.077-13.256-10.681-17.118c-3.727-5.532-3.932-6.007-6.859-11.96c-0.051-0.105-0.104-0.213-0.155-0.318
								c-2.216,3.587-4.517,7.116-6.952,10.572c-1.31,1.857-2.917,3.434-4.433,5.118c-0.552,0.613-1.115,1.231-1.631,1.882
								c-0.149,0.39-0.288,0.782-0.444,1.171c-0.136,0.339-3.82-2.973-3.983-2.65c1.2,1.87,6.686,6.673,9.791,6.653
								c3.341,8.716,6.539,17.736,10.287,26.198c0.212,0.402-0.444,0.593,0.121,0.773c2.766,0.317,4.789,0.078,7.154-0.606
								c1.671-0.483,3.304-1.182,4.761-1.897c3.383-1.661,7.069-9.226,7.686-10.782
								C329.473,331.975,327.311,328.835,324.809,324.939z"/>
							<g>
								<path style="fill-rule:evenodd;clip-rule:evenodd;fill:#F9D5CA;" d="M280.275,290.992c-2.431,0.523-5.654,0.227-7.947,1.261
									c-4.463,2.012-2.974,7.801-1.173,11.204c0.745,1.41,1.617,3.071,3.744,3.183c0.137,2.099-0.03,4.23,1.305,5.751
									c2.76,3.148,8.084,2.304,10.586,1.042c3.606,1.861,5.74,4.562,11.57,4.696c7.038,0.161,13.048-10.922,10.929-18.199
									c-2.016-6.923-7.941-10.608-8.574-16.083c-0.207-1.761-0.321-7.854-1.934-8.327c-3.573-1.048-5.568,10.789-5.213,13.05
									c-4.832-2.212-9.797-5.674-13.97-8.485c-2.421-1.633-5.209-3.854-7.52-3.138c-2.256,2.167-0.017,5.566,1.946,7.941
									C275.992,287.264,278.35,289.639,280.275,290.992"/>
								<path style="fill-rule:evenodd;clip-rule:evenodd;fill:#E5996E;" d="M293.568,288.57
									c-5.185-2.476-10.497-6.043-15.145-9.229c-2.336-1.599-4.857-4.244-6.673-2.031c2.253-0.615,4.913,1.931,7.24,3.673
									c4.208,3.147,8.905,7.094,13.304,10.21c-2.363,4.111-2.497,7.45-1.868,10.526c0.016-0.736,0.253-3.25,1.036-5.299
									c0.571-1.492,1.574-3.138,2.217-4.215C293.68,292.206,293.5,290.826,293.568,288.57"/>
								<path style="fill-rule:evenodd;clip-rule:evenodd;fill:#E5996E;" d="M288.678,310.597c5.329-3.287-2.934-6.71-6.682-7.679
									c1.357-3.158,3.183-6.35,4.76-9.806c-0.558,0.372-1.125,0.95-1.629,1.598c-1.598-1.17-3.536-2.45-4.852-3.718
									c-2.291,0.184-4.543,0.288-6.716,0.834c-1.47,0.368-2.761,1.06-3.529,2.509c3.972-2.459,9.198-1.391,14.686,0.519
									c-0.988,2.131-3.572,7.587-3.572,7.587l-3.143-0.78c-0.673-1.683-1.273-3.39-2.188-4.986
									c0.329,2.036,2.353,7.941-2.077,9.715c0.267,0.179,0.542,0.327,1.098,0.39c0.73,3.26,4.374,4.567,8.09,4.778
									c1.691,0.097,3.68-0.003,4.521-0.877c-3.427,0.162-9.761,0.151-12.129-3.838c1.306-0.297,2.683-1.862,2.568-3.532
									c1.658,0.142,6.338,1.318,8.96,2.983c1.682,1.067,3.093,2.961,0.806,4.315c1.951,1.866-2.519,3.464-2.517,3.462
									c0.543-0.04,3.505-0.475,4.039-2.382C289.244,311.428,289.207,310.834,288.678,310.597"/>
							</g>
						</g>
						<path style="fill-rule:evenodd;clip-rule:evenodd;fill:#BC5B1B;" d="M298.842,329.23c1.6-1.711,3.563-2.983,5.34-4.514
							c5.128-4.412,10.189-9.215,15.75-13.396c8.633,14.429,16.878,29.311,25.355,43.963c1.195,2.065,2.369,4.098,3.714,6.044
							c4.392-18.567,12.947-39.057,23.081-53.564c2.905-4.158,7.514-9.755,12.651-11.812c2.408-0.964,5.417-0.9,7.52,0.344
							c8.152,4.819,4.498,20.851,3.403,33.188c-1.087,12.255-2.846,23.712-5.066,34.817c-3.24,16.203-8.175,31.92-16.287,43.996
							c-2.713,4.037-5.998,7.905-9.545,10.636c-3.718,2.861-9.203,5.45-15.477,3.285c-4.854-1.676-8.301-5.133-11.569-8.698
							c-3.499-3.821-6.25-7.637-8.912-11.502C314.909,381.841,306.805,356.075,298.842,329.23z"/>
					</g>
					<g>
						<path style="fill-rule:evenodd;clip-rule:evenodd;fill:#CE7436;" d="M467.545,423.021H354.609
							c3.338-13.522,6.509-30.738,8.651-45.204c2.183-14.715-0.355-30.854,2.251-44.424c1.483-7.722,2.729-14.158,5.598-19.654
							c4.111-7.881,6.769-23.105,38.761-24.159c3.66-0.12,7.676-1.173,11.74-1.364c14.653-0.692,37.596,6.537,44.284,14.153
							c6.659,7.583-1.137,16.095,0.62,28.704c0.897,6.444,1.166,13.389,1.502,20.474c0.336,7.082,0.271,14.415,0.271,21.701
							C468.288,387.909,467.949,409.205,467.545,423.021z"/>
						<g>
							<g>
								<g>
									<g>
										<path style="fill-rule:evenodd;clip-rule:evenodd;fill:#FCC6B1;" d="M424.747,238.845
											c-8.383-0.17-15.609-6.842-16.245-15.345c-0.058-0.776-0.056-1.546-0.004-2.304c-3.207-0.841-6.979-0.995-11.542-0.314
											c-5.055,0.754-10.88,3.634-13.617,6.854c-2.197,2.587-3.38,6.549-4.168,9.987c-0.898,3.924-1.337,7.693-1.704,12.106
											c-0.675,8.102-1.021,19.721,2.847,25.741c2.476,3.855,7.125,6.048,12.84,5.336c0.931,2.697,1.934,5.332,2.907,8.076
											c0.938,2.642,1.677,5.564,2.907,8.075c0.955,1.943,2.882,4.079,4.593,5.954c1.685,1.845,3.706,3.869,5.593,4.957
											c2.741,1.581,7.396,2.706,10.391,1.371c5.093-2.269,6.559-9.653,7.434-15.605c0.148-1.004,0.461-2.243,0.394-2.947
											c-0.075-0.806-0.654-1.973-0.991-2.998c-2.329-7.071-4.772-14.44-6.956-21.134c3.592-6.627,6.853-13.47,6.097-23.185
											C425.393,241.833,425.122,240.297,424.747,238.845z"/>
										<path style="fill:#E5996E;" d="M402.338,276.382c-3.611,3.2-5.988,4.232-9.185,4.525c0.511,1.48,1.043,2.943,1.582,4.413
											C397.089,283.91,401.442,279.877,402.338,276.382z"/>
									</g>
									<path style="fill-rule:evenodd;clip-rule:evenodd;fill:#1F005A;" d="M418.316,228.801
										c10.413-0.889,11.352,14.714,11.134,23.978c-0.157,6.635-0.55,12.391-3.197,17.789c-0.894,1.82-2.045,3.932-4.032,3.95
										c-1.335,0.013-2.477-1.92-2.892-3.069c-0.914-2.528-0.822-5.584-1.056-7.666c1.07-0.397,1.948-0.882,2.663-1.554
										c0.694-0.652,2.182-2.764,2.54-4.266c0.484-2.04-0.008-4.949-1.789-5.247c-2.144-0.357-4.215,1.37-5.108,3.382
										c-0.62,1.397-1.061,3.103-1.684,4.561c-0.597,1.396-1.178,3.945-3.012,3.564c-2.074-0.43-1.884-3.869-2.108-5.981
										c-0.675-6.349-0.076-12.852,0.398-18.299c-8.104-0.979-16.205-2.987-23.892-6.501c-5.007-2.291-10.638-5.229-13.992-11.101
										c-1.651-2.894-2.478-7.003,0.721-8.216c1.121-0.426,2.798-0.351,3.941-0.064c3.41,0.856,8.044,4.141,10.441,5.758
										c0.122-0.057,0.156,0.029,0.185,0.121c-0.076-0.529-1.546-2.944-0.545-3.91c1.27-1.223,4.284,0.439,5.452,1.055
										c1.054,0.558,3.267,2.634,4.548,2.705c1.04,0.059,2.383-0.574,3.17-0.697c6.474-1.013,13.108,1.901,16.428,6.373
										C417.367,226.452,417.901,227.686,418.316,228.801z"/>
								</g>
								<g>
									<path style="fill-rule:evenodd;clip-rule:evenodd;fill:#CE7436;" d="M385.391,269.619c1.871-6.922,7.501-15.263,2.68-19.25
										c-1.433-1.184-3.582-2.093-5.637-3.117c-5.574-2.779-12.757-5.564-20.201-6.872c4.866-1.293,10.425-3.252,15.893-3.372
										c2.116-0.046,2.64,0.929,3.729,2.333c0.63,0.813,1.308,1.731,2.075,2.188c1.644,0.972,4.175,1.145,6.66,1.513
										c7.781,1.15,17.491,1.711,21.113,6.182c0.758,0.935,1.414,2.523,0.971,4.555c-1.097,5.012-6.661,7.765-10.503,10.013
										c-2.293,1.343-4.348,2.541-6.418,3.593C393.578,268.488,389.163,270.595,385.391,269.619z"/>
									<g>
										<defs>
											<path id="SVGID_00000084491484488661295180000001256630393063722163_" d="M385.391,269.619
												c1.871-6.922,7.501-15.263,2.68-19.25c-1.433-1.184-3.582-2.093-5.637-3.117c-5.574-2.779-12.757-5.564-20.201-6.872
												c4.866-1.293,10.425-3.252,15.893-3.372c2.116-0.046,2.64,0.929,3.729,2.333c0.63,0.813,1.308,1.731,2.075,2.188
												c1.644,0.972,4.175,1.145,6.66,1.513c7.781,1.15,17.491,1.711,21.113,6.182c0.758,0.935,1.414,2.523,0.971,4.555
												c-1.097,5.012-6.661,7.765-10.503,10.013c-2.293,1.343-4.348,2.541-6.418,3.593
												C393.578,268.488,389.163,270.595,385.391,269.619z"/>
										</defs>
										<clipPath id="SVGID_00000145024800872714204450000001783602186965104575_">
											<use xlink:href="#SVGID_00000084491484488661295180000001256630393063722163_"  style="overflow:visible;"/>
										</clipPath>
										<g style="clip-path:url(#SVGID_00000145024800872714204450000001783602186965104575_);">
											<g>
												<path style="fill-rule:evenodd;clip-rule:evenodd;fill:#FFFFFF;" d="M377.602,244.358
													c3.457,1.254,7.105,2.515,10.698,4.028c2.88,1.214,7.602,3.231,8.688,5.545c1.386,2.954-0.159,7.862-1.315,11.287
													c-0.634,1.875-1.413,3.365-3.6,4.243c-2.098,0.842-5.339,2.066-8.02,1.048c0.724-1.716,1.999-3.172,2.438-5.179
													c0.877-3.997-0.284-8.397-1.747-12.173c-1.226-3.163-3.246-6.432-5.271-7.709
													C378.767,245.003,377.831,245.133,377.602,244.358z"/>
												<path style="fill-rule:evenodd;clip-rule:evenodd;fill:#FFFFFF;" d="M408.061,260.458
													c1.594-2.16,4.005-4.268,3.347-7.255c-1.252-5.662-12.495-5.591-20.879-6.776c-4.735-0.671-13.723-2.382-13.566-6.594
													c0.072-1.906,1.858-3.353,3.249-3.564c0.851,0.158,2.009,0.359,2.733,0.858c0.883,0.603,1.474,2.756,2.944,3.342
													c2.145,0.853,5.412,0.94,8.36,1.201c5.299,0.469,10.555,1.741,14.746,3.615c3.301,1.475,6.915,3.521,5.711,8.21
													c-0.605,2.354-2.755,4.373-4.507,5.766C409.646,259.702,409.035,260.581,408.061,260.458z"/>
											</g>
											<polygon style="fill-rule:evenodd;clip-rule:evenodd;fill:#1F005A;" points="405.594,257.313 401.603,258.654 
												401.961,255.604 405.95,254.262 											"/>
										</g>
									</g>
									<g>
										<path style="fill-rule:evenodd;clip-rule:evenodd;fill:#1F005A;" d="M363.092,240.148c2.623-0.224,6.01,1.04,8.767,2.008
											c4.863,1.706,10.078,3.639,14.463,6.056c1.975,1.089,4.823,2.708,5.33,4.323c0.663,2.12-0.415,6.87-0.938,9.471
											c-0.474,2.35-1.192,6.57-3.363,7.408c-2.204,0.852-5.596-0.814-7.794-1.767c-4.735-2.052-9.178-3.765-13.64-5.983
											c-2.808-1.398-5.609-2.998-6.487-5.813c-0.474-1.516-0.573-4.08-0.557-6.676
											C358.907,244.356,359.142,240.484,363.092,240.148z"/>
										<g>
											<defs>
												<path id="SVGID_00000170980792782513398220000011743560494906898106_" d="M363.092,240.148
													c2.623-0.224,6.01,1.04,8.767,2.008c4.863,1.706,10.078,3.639,14.463,6.056c1.975,1.089,4.823,2.708,5.33,4.323
													c0.663,2.12-0.415,6.87-0.938,9.471c-0.474,2.35-1.192,6.57-3.363,7.408c-2.204,0.852-5.596-0.814-7.794-1.767
													c-4.735-2.052-9.178-3.765-13.64-5.983c-2.808-1.398-5.609-2.998-6.487-5.813c-0.474-1.516-0.573-4.08-0.557-6.676
													C358.907,244.356,359.142,240.484,363.092,240.148z"/>
											</defs>
											<clipPath id="SVGID_00000061442433527655444410000010349525336965880510_">
												<use xlink:href="#SVGID_00000170980792782513398220000011743560494906898106_"  style="overflow:visible;"/>
											</clipPath>
											<g style="clip-path:url(#SVGID_00000061442433527655444410000010349525336965880510_);">
												<polygon style="opacity:0.35;fill-rule:evenodd;clip-rule:evenodd;fill:#FFFFFF;" points="425.526,215.602 
													420.935,209.193 336.082,261.546 340.673,267.955 												"/>
												<polygon style="opacity:0.35;fill-rule:evenodd;clip-rule:evenodd;fill:#FFFFFF;" points="428.282,219.449 
													426.695,217.234 341.842,269.587 343.429,271.801 												"/>
												<polygon style="opacity:0.35;fill-rule:evenodd;clip-rule:evenodd;fill:#FFFFFF;" points="438.697,233.989 
													431.89,224.486 347.036,276.838 353.844,286.342 												"/>
											</g>
										</g>
									</g>
								</g>
								<path style="fill:#FFFFFF;" d="M416.499,256.447c-2.707,0-4.556-0.356-4.741-0.395l0.781-3.903
									c0.1,0.02,9.949,1.876,17.257-3.885l2.464,3.126C426.929,255.595,420.688,256.447,416.499,256.447z"/>
							</g>
							<path style="fill-rule:evenodd;clip-rule:evenodd;fill:#FFFFFF;" d="M412.719,310.466c-0.441,0.305-1.388,4.243-2.021,5.834
								c-0.585,1.471-1.757,4.38-3.499,4.563c-1.699,0.178-3.24-2.418-4.137-3.991c-2.6-4.547-4.355-9.388-5.761-15.387
								c-0.69-2.957-1.304-4.958,0.939-6.082c3.134,5.245,8.911,13.37,14.798,13.197c5.603-0.165,13.084-14.276,13.132-21.445
								c1.922-0.656,4.594-0.172,5.526,1.927c0.283,0.641,0.37,1.821,0.37,2.891c-0.003,2.892-0.827,5.684-1.521,8.407
								c-1.208,4.75-2.705,10.396-5.035,14.813c-1.065,2.024-3.026,5.118-4.978,5.288c-2.018,0.174-3.804-2.263-4.903-3.935
								C414.289,314.502,413.5,312.668,412.719,310.466z"/>
						</g>
					</g>
				</g>
			</g>
			<g>
				<g>
					<path style="fill-rule:evenodd;clip-rule:evenodd;fill:#FCC6B1;" d="M360.748,348.669c-3.146-3.055-10.877-11.075-14.29-14.244
						c-4.886-4.541-5.191-4.957-9.396-10.09c-0.074-0.091-0.15-0.184-0.223-0.275c-1.344,3.997-2.782,7.957-4.371,11.876
						c-0.853,2.105-2.06,4.006-3.152,5.99c-0.397,0.724-0.808,1.453-1.163,2.204c-0.055,0.413-0.103,0.828-0.166,1.239
						c-0.056,0.361-4.396-2.026-4.48-1.675c1.595,1.549,8.028,5.24,11.048,4.516c5.231,7.729,10.397,15.527,15.966,22.916
						c0.299,0.344-0.298,0.679,0.296,0.726c2.766-0.318,4.682-1.011,6.83-2.215c1.517-0.851,2.947-1.901,4.204-2.93
						c2.918-2.386,4.789-10.59,5.034-12.246C366.886,354.461,364.069,351.895,360.748,348.669z"/>
					<g>
						<path style="fill:#FCC6B1;" d="M314.488,346.374c2.196-0.541,3.873-1.978,6.083-2.496c4.327,2.194,10.549,4.317,15.4,4.185
							l10.486-13.638c0,0-13.14-14.169-15.018-18.121c-0.823-1.733-0.635-5.649-2.641-6.04c-2.109-0.409-3.902,2.531-4.319,5.544
							c-0.351,2.522,0.884,4.561,1.052,5.694c-3.261-1.049-5.777-1.717-9.377-2.512c-3.969-0.877-11.714-3.972-12.555-0.271
							c-0.877,3.861,9.406,5.973,11.518,7.98c-2.584,0.262-5.286,0.536-8.288,1.128c-2.427,0.481-6.516,1.029-6.883,3.571
							c-0.586,4.018,8.054,3.178,10.754,3.138c-2.541,1.846-10.831,8.418-9.182,11.195c1.223,2.071,4.578,0.152,5.785,0.522
							c-1.1,1.688-3.961,5.374-1.802,6.732C308.624,354.952,313.277,347.899,314.488,346.374"/>
						<path style="fill:#E5996E;" d="M328.214,345.154c-2.181-0.897-4.306-2.705-6.17-2.94c-1.103-0.14-2.872,0.775-4.186,1.195
							c-1.13,0.368-3.244,0.83-4.008,1.504c-1.116,0.985-1.869,4.261-6.904,8.4c3.686-0.433,5.61-4.42,7.543-6.939
							c2.391-0.003,6.083-2.496,6.083-2.496c1.135,0.897,3.68,2.663,5.543,3.287c3.38,1.137,5.846,1.893,9.792,1.139
							C335.906,348.304,330.361,346.035,328.214,345.154z"/>
						<path style="fill:#E5996E;" d="M332.135,323.787c-4.434-2.725-7.182-6.618-4.898-13.218c-1.648,0.819-2.555,3.435-2.82,5.478
							c-0.296,2.272,0.599,4.16,1.116,5.455C327.865,321.917,330.136,323.853,332.135,323.787"/>
						<path style="fill:#E5996E;" d="M324.469,327.4c-3.634-2.067-9.514-3.042-13.994-4.52c-2.454-0.81-5.416-2.017-6.763-2.906
							c0.175,1.889,7.537,6.048,11.647,6.79C315.358,326.765,320.295,326.271,324.469,327.4"/>
						<path style="fill:#E5996E;" d="M310.701,334.537c0,0,3.467-1.905,5.359-2.69c1.912-0.789,3.008-0.986,4.974-1.243
							c-8.206-1.653-12.099,4.782-20.827,2.219c0.955,1.779,3.75,1.734,5.308,1.871
							C307.274,334.853,309.206,334.804,310.701,334.537"/>
						<path style="fill:#E5996E;" d="M319.036,338.058c-8.257-2.182-11.732,8.197-17.519,7.677c1.394,2.15,4.321,1.234,5.723,0.758
							C310.061,341.761,313.904,338.792,319.036,338.058"/>
					</g>
				</g>
				<g>
					<path style="fill-rule:evenodd;clip-rule:evenodd;fill:#F29657;" d="M345.401,371.517c3.32-3.293,7.283-5.953,10.878-8.921
						c3.633-3,7.018-6.195,10.602-9.195c6.992,6.799,13.106,13.689,19.614,20.381c6.551,6.738,12.521,14.055,19.206,20.658
						c8.991-21.636,17.942-44.653,29.315-64.835c4.398-7.808,9.052-15.719,15.455-22.185c3.158-3.187,6.864-6.36,11.705-7.151
						c1.21-0.198,2.779,0.138,3.962,0.664c4.515,2.007,7.1,7.604,8.392,13.882c1.312,6.385,1.083,14.016,0.506,20.745
						c-1.18,13.782-4.091,26.166-7.471,36.888c-3.53,11.2-8.131,21.516-13.23,31.181c-5.137,9.736-11.162,18.604-17.893,26.428
						c-3.484,4.049-7.069,7.575-11.964,10.293c-4.971,2.76-11.058,4.563-18.001,3.497c-6.411-0.984-11.34-3.442-15.591-6.615
						c-8.358-6.239-14.699-15.04-20.584-23.927C361.466,399.968,353.047,386.433,345.401,371.517z"/>
					<path style="fill:#BC5B1B;" d="M474.53,314.815c-1.263-6.141-3.77-11.618-8.101-13.734c1.5,2.509,2.552,5.633,3.233,8.953
						c1.312,6.386,1.083,14.017,0.507,20.746c-1.182,13.781-4.091,26.166-7.471,36.887c-3.53,11.201-8.129,21.516-13.23,31.183
						c-5.137,9.735-11.161,18.603-17.892,26.427c-3.484,4.05-7.07,7.574-11.964,10.293c-4.969,2.76-11.059,4.563-18.002,3.496
						c-6.409-0.984-11.339-3.441-15.591-6.615c-1.139-0.851-2.237-1.753-3.308-2.692c2.52,2.737,5.22,5.267,8.175,7.474
						c4.251,3.173,9.18,5.631,15.591,6.615c6.943,1.066,13.03-0.737,18.001-3.497c4.895-2.718,8.479-6.244,11.964-10.293
						c6.73-7.823,12.756-16.691,17.893-26.428c5.099-9.665,9.699-19.98,13.23-31.181c3.38-10.722,6.291-23.105,7.471-36.888
						C475.613,328.831,475.842,321.2,474.53,314.815z"/>
					<path style="fill:#BC5B1B;" d="M408.317,388.11c-0.871,2.12-1.744,4.232-2.615,6.33c3.69,5.055,12.348,13.727,12.348,13.727
						C417.957,406.455,411.68,393.795,408.317,388.11z"/>
				</g>
			</g>
		</g>
	</g>
</g>
</svg>
